<svg width="68" height="67" viewBox="0 0 68 67" fill="none" xmlns="http://www.w3.org/2000/svg">
<path d="M37.6799 8.42617L18.1496 14.4376C11.0324 16.6282 7.9973 22.1449 9.75752 29.6911L14.5832 50.379C16.3434 57.9252 21.3731 60.9595 28.4903 58.7689L48.0206 52.7575C55.1378 50.5668 58.1543 45.0558 56.3941 37.5097L51.5684 16.8218C49.8082 9.27558 44.7971 6.23553 37.6799 8.42617Z" fill="url(#paint0_linear_42_45)"/>
<g opacity="0.5" filter="url(#filter0_f_42_45)">
<path d="M36.2819 17.6791L23.3812 21.6497C18.68 23.0967 16.6433 26.6043 17.7499 31.3481L20.7837 44.3534C21.8903 49.0973 25.1809 50.9652 29.8821 49.5183L42.7828 45.5476C47.484 44.1007 49.5084 40.5969 48.4018 35.853L45.368 22.8477C44.2614 18.1039 40.9831 16.2322 36.2819 17.6791Z" fill="#E31313"/>
</g>
<g filter="url(#filter1_b_42_45)">
<path d="M50.5634 19.2966H32.1057C24.8886 19.2966 20.0347 24.8543 20.0347 33.1208V52.199C20.0347 60.4421 24.8886 65.9998 32.1057 65.9998H50.5634C57.7805 65.9998 62.6131 60.4421 62.6131 52.199V33.1208C62.6131 24.8543 57.7805 19.2966 50.5634 19.2966Z" fill="#F03E3D"/>
<path d="M50.5634 18.7966H32.1057C28.3602 18.7966 25.2025 20.243 22.9872 22.7799C20.777 25.3109 19.5347 28.8916 19.5347 33.1208V52.199C19.5347 56.4168 20.7771 59.9917 22.9874 62.5197C25.2027 65.0535 28.3602 66.4998 32.1057 66.4998H50.5634C54.309 66.4998 57.4615 65.0534 59.6715 62.5192C61.8763 59.991 63.1131 56.4163 63.1131 52.199V33.1208C63.1131 28.8921 61.8765 25.3116 59.6717 22.7804C57.4616 20.2431 54.309 18.7966 50.5634 18.7966Z" stroke="url(#paint1_linear_42_45)" stroke-linecap="round" stroke-linejoin="round"/>
</g>
<g filter="url(#filter2_b_42_45)">
<path d="M64.8719 15.8657C63.1442 15.8657 61.7437 17.4019 61.7437 19.297C61.7437 21.192 63.1442 22.7282 64.8719 22.7282C66.5995 22.7282 68.0001 21.192 68.0001 19.297C68.0001 18.3869 67.6705 17.5142 67.0838 16.8707C66.4972 16.2272 65.7015 15.8657 64.8719 15.8657Z" fill="url(#paint2_linear_42_45)"/>
</g>
<g filter="url(#filter3_bd_42_45)">
<path d="M52.4622 38.5129L46.3781 47.1245C46.1221 47.4988 45.7382 47.743 45.3145 47.801C44.8908 47.859 44.4638 47.7258 44.1316 47.4321L38.2909 42.4086L33.0304 49.872C32.6495 50.5355 31.9076 50.8337 31.2252 50.5974C30.5429 50.3612 30.0923 49.6501 30.1288 48.8673C30.1256 48.48 30.2446 48.1034 30.4657 47.8011L36.7558 38.9025C37.0087 38.5312 37.3875 38.2871 37.8067 38.2254C38.2258 38.1636 38.6501 38.2895 38.9835 38.5744L44.8243 43.6184L49.9537 36.3805C50.2003 36.0073 50.5745 35.7596 50.9908 35.6939C51.4071 35.6282 51.8299 35.7502 52.1627 36.0319C52.8502 36.6217 52.983 37.7042 52.4622 38.4719V38.5129Z" fill="url(#paint3_linear_42_45)"/>
<path d="M46.2147 47.0091L46.2147 47.0091L46.213 47.0116C45.9867 47.3425 45.6514 47.553 45.2874 47.6029C44.9238 47.6526 44.5545 47.5391 44.2641 47.2822L44.262 47.2804L38.4213 42.257L38.2543 42.1134L38.1274 42.2934L32.867 49.7568L32.8616 49.7644L32.857 49.7724C32.5197 50.3599 31.8745 50.6106 31.2907 50.4084C30.7016 50.2044 30.2957 49.5812 30.3286 48.8767L30.3289 48.8767L30.3288 48.8657C30.3259 48.5198 30.4324 48.1855 30.6272 47.9192L30.6272 47.9192L30.6291 47.9166L36.9191 39.0179L36.9191 39.0179L36.9211 39.0151C37.1447 38.6868 37.4756 38.4763 37.8358 38.4232C38.1954 38.3703 38.5619 38.4774 38.8532 38.7261C38.8533 38.7262 38.8534 38.7263 38.8536 38.7265L44.6936 43.7697L44.8602 43.9136L44.9875 43.734L50.1168 36.4961L50.1169 36.4962L50.1205 36.4908C50.3383 36.1612 50.6648 35.9478 51.0219 35.8915C51.3783 35.8352 51.7429 35.9388 52.0329 36.1841C52.6399 36.7053 52.7625 37.6731 52.2967 38.3596L52.2622 38.4105V38.4494L46.2147 47.0091Z" stroke="url(#paint4_linear_42_45)" stroke-width="0.4"/>
</g>
<defs>
<filter id="filter0_f_42_45" x="0.455078" y="0.201172" width="65.2427" height="66.7954" filterUnits="userSpaceOnUse" color-interpolation-filters="sRGB">
<feFlood flood-opacity="0" result="BackgroundImageFix"/>
<feBlend mode="normal" in="SourceGraphic" in2="BackgroundImageFix" result="shape"/>
<feGaussianBlur stdDeviation="8.5" result="effect1_foregroundBlur_42_45"/>
</filter>
<filter id="filter1_b_42_45" x="-4.96533" y="-5.70337" width="92.5784" height="96.7031" filterUnits="userSpaceOnUse" color-interpolation-filters="sRGB">
<feFlood flood-opacity="0" result="BackgroundImageFix"/>
<feGaussianBlur in="BackgroundImageFix" stdDeviation="12"/>
<feComposite in2="SourceAlpha" operator="in" result="effect1_backgroundBlur_42_45"/>
<feBlend mode="normal" in="SourceGraphic" in2="effect1_backgroundBlur_42_45" result="shape"/>
</filter>
<filter id="filter2_b_42_45" x="46.7437" y="0.865723" width="36.2563" height="36.8625" filterUnits="userSpaceOnUse" color-interpolation-filters="sRGB">
<feFlood flood-opacity="0" result="BackgroundImageFix"/>
<feGaussianBlur in="BackgroundImageFix" stdDeviation="7.5"/>
<feComposite in2="SourceAlpha" operator="in" result="effect1_backgroundBlur_42_45"/>
<feBlend mode="normal" in="SourceGraphic" in2="effect1_backgroundBlur_42_45" result="shape"/>
</filter>
<filter id="filter3_bd_42_45" x="15.1267" y="20.6765" width="52.6533" height="45.0012" filterUnits="userSpaceOnUse" color-interpolation-filters="sRGB">
<feFlood flood-opacity="0" result="BackgroundImageFix"/>
<feGaussianBlur in="BackgroundImageFix" stdDeviation="7.5"/>
<feComposite in2="SourceAlpha" operator="in" result="effect1_backgroundBlur_42_45"/>
<feColorMatrix in="SourceAlpha" type="matrix" values="0 0 0 0 0 0 0 0 0 0 0 0 0 0 0 0 0 0 127 0" result="hardAlpha"/>
<feOffset dx="5" dy="5"/>
<feGaussianBlur stdDeviation="5"/>
<feColorMatrix type="matrix" values="0 0 0 0 1 0 0 0 0 0.321569 0 0 0 0 0.54902 0 0 0 0.5 0"/>
<feBlend mode="normal" in2="effect1_backgroundBlur_42_45" result="effect2_dropShadow_42_45"/>
<feBlend mode="normal" in="SourceGraphic" in2="effect2_dropShadow_42_45" result="shape"/>
</filter>
<linearGradient id="paint0_linear_42_45" x1="36.8464" y1="35.6215" x2="2.4676" y2="63.315" gradientUnits="userSpaceOnUse">
<stop stop-color="#F03E3D"/>
<stop offset="1" stop-color="#870404"/>
</linearGradient>
<linearGradient id="paint1_linear_42_45" x1="26.8125" y1="24.7376" x2="57.065" y2="58.8969" gradientUnits="userSpaceOnUse">
<stop stop-color="white" stop-opacity="0.25"/>
<stop offset="1" stop-color="white" stop-opacity="0"/>
</linearGradient>
<linearGradient id="paint2_linear_42_45" x1="65.3325" y1="19.7565" x2="59.6516" y2="22.2747" gradientUnits="userSpaceOnUse">
<stop stop-color="#FF759F" stop-opacity="0"/>
<stop offset="1" stop-color="#FF196E"/>
</linearGradient>
<linearGradient id="paint3_linear_42_45" x1="51.1739" y1="38.3854" x2="25.9745" y2="39.6261" gradientUnits="userSpaceOnUse">
<stop stop-color="white"/>
<stop offset="1" stop-color="white" stop-opacity="0.2"/>
</linearGradient>
<linearGradient id="paint4_linear_42_45" x1="33.7327" y1="37.4242" x2="41.8733" y2="52.6495" gradientUnits="userSpaceOnUse">
<stop stop-color="white" stop-opacity="0.25"/>
<stop offset="1" stop-color="white" stop-opacity="0"/>
</linearGradient>
</defs>
</svg>
