<svg width="72" height="72" viewBox="0 0 72 72" fill="none" xmlns="http://www.w3.org/2000/svg">
<g filter="url(#filter0_b_42_34)">
<path d="M37.1408 7.34107L16.6858 13.1889C9.23166 15.3199 6.13984 21.033 8.13698 28.9854L13.6122 50.787C15.6093 58.7394 20.9642 62.0376 28.4183 59.9066L48.8734 54.0588C56.3275 51.9277 59.3999 46.2202 57.4027 38.2678L51.9275 16.4662C49.9304 8.51386 44.595 5.21004 37.1408 7.34107Z" fill="url(#paint0_linear_42_34)"/>
</g>
<g opacity="0.5" filter="url(#filter1_f_42_34)">
<path d="M47.2199 35.9124L43.5054 20.8997C42.158 15.4542 38.7858 13.0126 34.3519 14.2615L19.3345 18.4913C14.8278 19.7607 13.0827 23.6437 14.4301 29.0892L18.1447 44.1019C19.5137 49.6351 22.8056 52.0036 27.3123 50.7343L42.3297 46.5044C46.7637 45.2555 48.589 41.4456 47.2199 35.9124Z" fill="#11B5E4"/>
</g>
<g filter="url(#filter2_b_42_34)">
<mask id="path-3-outside-1_42_34" maskUnits="userSpaceOnUse" x="20.6611" y="16.626" width="48" height="51" fill="black">
<rect fill="white" x="20.6611" y="16.626" width="48" height="51"/>
<path d="M54.9241 17.626H33.7494C26.0331 17.626 21.6611 22.2906 21.6611 30.5235V53.0942C21.6611 61.3271 26.0331 65.9917 33.7494 65.9917H54.9241C62.6404 65.9917 66.9922 61.3271 66.9922 53.0942V30.5235C66.9922 22.2906 62.6404 17.626 54.9241 17.626Z"/>
</mask>
<path d="M54.9241 17.626H33.7494C26.0331 17.626 21.6611 22.2906 21.6611 30.5235V53.0942C21.6611 61.3271 26.0331 65.9917 33.7494 65.9917H54.9241C62.6404 65.9917 66.9922 61.3271 66.9922 53.0942V30.5235C66.9922 22.2906 62.6404 17.626 54.9241 17.626Z" fill="#00ACDD"/>
<path d="M54.9241 18.626C55.4763 18.626 55.9241 18.1783 55.9241 17.626C55.9241 17.0737 55.4763 16.626 54.9241 16.626V18.626ZM54.9241 16.626C54.3718 16.626 53.9241 17.0737 53.9241 17.626C53.9241 18.1783 54.3718 18.626 54.9241 18.626V16.626ZM54.9241 16.626H33.7494V18.626H54.9241V16.626ZM33.7494 16.626C29.6868 16.626 26.3727 17.8595 24.082 20.3035C21.8002 22.7381 20.6611 26.2381 20.6611 30.5235H22.6611C22.6611 26.576 23.708 23.6272 25.5413 21.6712C27.3656 19.7248 30.0957 18.626 33.7494 18.626V16.626ZM20.6611 30.5235V53.0942H22.6611V30.5235H20.6611ZM20.6611 53.0942C20.6611 57.3796 21.8002 60.8796 24.082 63.3141C26.3727 65.7582 29.6868 66.9917 33.7494 66.9917V64.9917C30.0957 64.9917 27.3656 63.8929 25.5413 61.9464C23.708 59.9904 22.6611 57.0417 22.6611 53.0942H20.6611ZM33.7494 66.9917H54.9241V64.9917H33.7494V66.9917ZM54.9241 66.9917C58.9868 66.9917 62.2964 65.7581 64.5822 63.3132C66.8587 60.8783 67.9922 57.3784 67.9922 53.0942H65.9922C65.9922 57.0428 64.9498 59.9917 63.1213 61.9473C61.3022 63.893 58.5776 64.9917 54.9241 64.9917V66.9917ZM67.9922 53.0942V30.5235H65.9922V53.0942H67.9922ZM67.9922 30.5235C67.9922 26.2392 66.8587 22.7393 64.5822 20.3044C62.2964 17.8596 58.9868 16.626 54.9241 16.626V18.626C58.5776 18.626 61.3022 19.7247 63.1213 21.6703C64.9498 23.626 65.9922 26.5748 65.9922 30.5235H67.9922Z" fill="url(#paint1_linear_42_34)" mask="url(#path-3-outside-1_42_34)"/>
</g>
<g filter="url(#filter3_bd_42_34)">
<mask id="path-5-inside-2_42_34" fill="white">
<path fill-rule="evenodd" clip-rule="evenodd" d="M44.4062 27.5144C43.3787 27.5144 42.5325 28.4172 42.5325 29.535V54.0833C42.5325 55.1796 43.3787 56.0824 44.4062 56.0824C45.4538 56.0824 46.3 55.1796 46.3 54.0833V29.535C46.3 28.4172 45.4538 27.5144 44.4062 27.5144ZM33.8293 35.4471C32.8017 35.4471 31.9556 36.3499 31.9556 37.4677V54.084C31.9556 55.1803 32.8017 56.0831 33.8293 56.0831C34.8769 56.0831 35.7231 55.1803 35.7231 54.084V37.4677C35.7231 36.3499 34.8769 35.4471 33.8293 35.4471ZM52.9492 46.2378C52.9492 45.1201 53.7954 44.2172 54.8431 44.2172C55.8706 44.2172 56.7168 45.1201 56.7168 46.2378V54.0838C56.7168 55.1801 55.8706 56.083 54.8229 56.083C53.7954 56.083 52.9492 55.1801 52.9492 54.0838V46.2378Z"/>
</mask>
<path fill-rule="evenodd" clip-rule="evenodd" d="M44.4062 27.5144C43.3787 27.5144 42.5325 28.4172 42.5325 29.535V54.0833C42.5325 55.1796 43.3787 56.0824 44.4062 56.0824C45.4538 56.0824 46.3 55.1796 46.3 54.0833V29.535C46.3 28.4172 45.4538 27.5144 44.4062 27.5144ZM33.8293 35.4471C32.8017 35.4471 31.9556 36.3499 31.9556 37.4677V54.084C31.9556 55.1803 32.8017 56.0831 33.8293 56.0831C34.8769 56.0831 35.7231 55.1803 35.7231 54.084V37.4677C35.7231 36.3499 34.8769 35.4471 33.8293 35.4471ZM52.9492 46.2378C52.9492 45.1201 53.7954 44.2172 54.8431 44.2172C55.8706 44.2172 56.7168 45.1201 56.7168 46.2378V54.0838C56.7168 55.1801 55.8706 56.083 54.8229 56.083C53.7954 56.083 52.9492 55.1801 52.9492 54.0838V46.2378Z" fill="url(#paint2_linear_42_34)"/>
<path d="M42.9325 29.535C42.9325 28.6105 43.6263 27.9144 44.4062 27.9144V27.1144C43.1311 27.1144 42.1325 28.224 42.1325 29.535H42.9325ZM42.9325 54.0833V29.535H42.1325V54.0833H42.9325ZM44.4062 55.6824C43.6236 55.6824 42.9325 54.9835 42.9325 54.0833H42.1325C42.1325 55.3757 43.1337 56.4824 44.4062 56.4824V55.6824ZM45.9 54.0833C45.9 54.9806 45.2116 55.6824 44.4062 55.6824V56.4824C45.6961 56.4824 46.7 55.3786 46.7 54.0833H45.9ZM45.9 29.535V54.0833H46.7V29.535H45.9ZM44.4062 27.9144C45.2089 27.9144 45.9 28.6133 45.9 29.535H46.7C46.7 28.2211 45.6988 27.1144 44.4062 27.1144V27.9144ZM32.3556 37.4677C32.3556 36.5432 33.0494 35.8471 33.8293 35.8471V35.0471C32.5541 35.0471 31.5556 36.1567 31.5556 37.4677H32.3556ZM32.3556 54.084V37.4677H31.5556V54.084H32.3556ZM33.8293 55.6831C33.0467 55.6831 32.3556 54.9842 32.3556 54.084H31.5556C31.5556 55.3764 32.5568 56.4831 33.8293 56.4831V55.6831ZM35.3231 54.084C35.3231 54.9813 34.6347 55.6831 33.8293 55.6831V56.4831C35.1191 56.4831 36.1231 55.3793 36.1231 54.084H35.3231ZM35.3231 37.4677V54.084H36.1231V37.4677H35.3231ZM33.8293 35.8471C34.632 35.8471 35.3231 36.546 35.3231 37.4677H36.1231C36.1231 36.1538 35.1218 35.0471 33.8293 35.0471V35.8471ZM54.8431 43.8172C53.5505 43.8172 52.5492 44.924 52.5492 46.2378H53.3492C53.3492 45.3162 54.0403 44.6172 54.8431 44.6172V43.8172ZM57.1168 46.2378C57.1168 44.9268 56.1182 43.8172 54.8431 43.8172V44.6172C55.623 44.6172 56.3168 45.3133 56.3168 46.2378H57.1168ZM57.1168 54.0838V46.2378H56.3168V54.0838H57.1168ZM54.8229 56.483C56.1128 56.483 57.1168 55.3791 57.1168 54.0838H56.3168C56.3168 54.9812 55.6283 55.683 54.8229 55.683V56.483ZM52.5492 54.0838C52.5492 55.3762 53.5505 56.483 54.8229 56.483V55.683C54.0403 55.683 53.3492 54.984 53.3492 54.0838H52.5492ZM52.5492 46.2378V54.0838H53.3492V46.2378H52.5492Z" fill="url(#paint3_linear_42_34)" mask="url(#path-5-inside-2_42_34)"/>
</g>
<defs>
<filter id="filter0_b_42_34" x="-5.45654" y="-6.29175" width="76.4546" height="79.8315" filterUnits="userSpaceOnUse" color-interpolation-filters="sRGB">
<feFlood flood-opacity="0" result="BackgroundImageFix"/>
<feGaussianBlur in="BackgroundImageFix" stdDeviation="6.5"/>
<feComposite in2="SourceAlpha" operator="in" result="effect1_backgroundBlur_42_34"/>
<feBlend mode="normal" in="SourceGraphic" in2="effect1_backgroundBlur_42_34" result="shape"/>
</filter>
<filter id="filter1_f_42_34" x="0.986328" y="0.941162" width="59.6797" height="63.1279" filterUnits="userSpaceOnUse" color-interpolation-filters="sRGB">
<feFlood flood-opacity="0" result="BackgroundImageFix"/>
<feBlend mode="normal" in="SourceGraphic" in2="BackgroundImageFix" result="shape"/>
<feGaussianBlur stdDeviation="6.5" result="effect1_foregroundBlur_42_34"/>
</filter>
<filter id="filter2_b_42_34" x="5.66113" y="1.62598" width="77.3311" height="80.3657" filterUnits="userSpaceOnUse" color-interpolation-filters="sRGB">
<feFlood flood-opacity="0" result="BackgroundImageFix"/>
<feGaussianBlur in="BackgroundImageFix" stdDeviation="7.5"/>
<feComposite in2="SourceAlpha" operator="in" result="effect1_backgroundBlur_42_34"/>
<feBlend mode="normal" in="SourceGraphic" in2="effect1_backgroundBlur_42_34" result="shape"/>
</filter>
<filter id="filter3_bd_42_34" x="16.9556" y="12.5144" width="54.7612" height="58.5688" filterUnits="userSpaceOnUse" color-interpolation-filters="sRGB">
<feFlood flood-opacity="0" result="BackgroundImageFix"/>
<feGaussianBlur in="BackgroundImageFix" stdDeviation="7.5"/>
<feComposite in2="SourceAlpha" operator="in" result="effect1_backgroundBlur_42_34"/>
<feColorMatrix in="SourceAlpha" type="matrix" values="0 0 0 0 0 0 0 0 0 0 0 0 0 0 0 0 0 0 127 0" result="hardAlpha"/>
<feOffset dx="5" dy="5"/>
<feGaussianBlur stdDeviation="5"/>
<feColorMatrix type="matrix" values="0 0 0 0 1 0 0 0 0 0.447059 0 0 0 0 0.368627 0 0 0 0.5 0"/>
<feBlend mode="normal" in2="effect1_backgroundBlur_42_34" result="effect2_dropShadow_42_34"/>
<feBlend mode="normal" in="SourceGraphic" in2="effect2_dropShadow_42_34" result="shape"/>
</filter>
<linearGradient id="paint0_linear_42_34" x1="36.7793" y1="35.8334" x2="1.47372" y2="64.5297" gradientUnits="userSpaceOnUse">
<stop stop-color="#11B5E4"/>
<stop offset="1" stop-color="#035B81"/>
</linearGradient>
<linearGradient id="paint1_linear_42_34" x1="28.8771" y1="23.2606" x2="60.0902" y2="59.4933" gradientUnits="userSpaceOnUse">
<stop stop-color="white" stop-opacity="0.25"/>
<stop offset="1" stop-color="white" stop-opacity="0"/>
</linearGradient>
<linearGradient id="paint2_linear_42_34" x1="25.5462" y1="48.7187" x2="38.4094" y2="73.4862" gradientUnits="userSpaceOnUse">
<stop stop-color="white"/>
<stop offset="1" stop-color="white" stop-opacity="0.2"/>
</linearGradient>
<linearGradient id="paint3_linear_42_34" x1="35.8971" y1="30.8427" x2="54.4928" y2="50.8043" gradientUnits="userSpaceOnUse">
<stop stop-color="white" stop-opacity="0.25"/>
<stop offset="1" stop-color="white" stop-opacity="0"/>
</linearGradient>
</defs>
</svg>
